<?xml version="1.0" encoding="iso-8859-1"?>
<!-- Uploaded to: SVG Repo, www.svgrepo.com, Generator: SVG Repo Mixer Tools -->
<svg height="800px" width="800px" version="1.1" id="Layer_1" xmlns="http://www.w3.org/2000/svg" xmlns:xlink="http://www.w3.org/1999/xlink" 
	 viewBox="0 0 264.501 264.501" xml:space="preserve">
<g>
	<g>
		<g>
			<g id="XMLID_33_">
				<g>
					<path style="fill:#C5CBCF;" d="M237.543,235.125v1.502c0,6.668-5.256,12.075-11.714,12.075H38.703
						c-6.458,0-11.714-5.407-11.714-12.075v-1.502c0-6.638,5.256-12.075,11.714-12.075h187.126
						C232.286,223.05,237.543,228.487,237.543,235.125z"/>
					<path style="fill:#EAEEEF;" d="M38.703,223.05c-6.458,0-11.714,5.437-11.714,12.075v1.502c0,1.361,0.267,2.646,0.67,3.866
						c1.385,0.595,2.902,0.928,4.493,0.928h187.126c6.458,0,11.714-5.407,11.714-12.075v-1.502c0-1.358-0.267-2.643-0.673-3.863
						c-1.385-0.598-2.898-0.931-4.49-0.931L38.703,223.05L38.703,223.05z"/>
					<path style="fill:#EAEEEF;" d="M130.344,129.787c10.543,0,19.133,8.861,19.133,19.734c0,10.873-8.59,19.734-19.133,19.734
						s-19.133-8.861-19.133-19.734C111.211,138.648,119.801,129.787,130.344,129.787z M138.964,149.04
						c0-4.926-3.875-8.891-8.62-8.891c-4.746,0-8.62,3.965-8.62,8.891c0,4.896,3.875,8.861,8.62,8.861
						S138.964,153.936,138.964,149.04z"/>
					<path style="fill:#EAEEEF;" d="M223.577,172.289c4.686-16.069,2.073-38.116,1.952-39.047c-0.39-3.244-3.274-5.527-6.428-5.136
						c-3.124,0.421-5.377,3.364-4.986,6.608c0.03,0.21,2.433,20.455-1.532,34.151c-0.931,3.154,0.811,6.458,3.845,7.389
						c0.541,0.18,1.111,0.24,1.652,0.24C220.543,176.494,222.826,174.842,223.577,172.289z M162.633,137.266l56.498-38.206
						c10.122,15.349,25.951,51.032,0.18,100.472l-56.799-37.395c1.442-3.935,2.283-8.17,2.283-12.615
						C164.795,145.226,164.014,141.111,162.633,137.266z M209.038,116l0.33,1.502c0.571,2.763,2.944,4.626,5.587,4.626
						c0.421,0,0.841-0.03,1.232-0.12c3.124-0.721,5.076-3.875,4.385-7.059l-0.33-1.502c-0.691-3.184-3.725-5.166-6.848-4.505
						C210.299,109.663,208.348,112.817,209.038,116z"/>
					<path style="fill:#2D213F;" d="M225.529,133.241c0.12,0.931,2.733,22.978-1.952,39.047c-0.751,2.553-3.034,4.205-5.497,4.205
						c-0.541,0-1.111-0.06-1.652-0.24c-3.034-0.931-4.776-4.235-3.845-7.389c3.965-13.697,1.562-33.941,1.532-34.151
						c-0.39-3.244,1.862-6.187,4.986-6.608C222.255,127.715,225.137,129.997,225.529,133.241z"/>
					<path style="fill:#2D213F;" d="M220.573,114.949c0.691,3.184-1.262,6.338-4.385,7.059c-0.39,0.09-0.811,0.12-1.232,0.12
						c-2.643,0-5.016-1.862-5.587-4.626l-0.33-1.502c-0.691-3.184,1.262-6.338,4.355-7.059c3.124-0.661,6.157,1.322,6.848,4.505
						L220.573,114.949z"/>
					<path style="fill:#2D213F;" d="M130.344,140.15c4.746,0,8.62,3.965,8.62,8.891c0,4.896-3.875,8.861-8.62,8.861
						c-4.746,0-8.62-3.965-8.62-8.861C121.723,144.114,125.598,140.15,130.344,140.15z"/>
					<ellipse style="fill:#2D213F;" cx="104.512" cy="192.954" rx="6.698" ry="6.908"/>
					<path style="fill:#2D213F;" d="M85.86,186.045c3.694,0,6.698,3.094,6.698,6.908c0,3.815-3.004,6.908-6.698,6.908
						c-3.725,0-6.698-3.094-6.698-6.908C79.162,189.139,82.135,186.045,85.86,186.045z"/>
					<path style="fill:#505967;" d="M97.814,192.954c0,3.815,3.004,6.908,6.698,6.908s6.698-3.094,6.698-6.908
						c0-3.815-3.004-6.908-6.698-6.908C100.818,186.045,97.814,189.139,97.814,192.954z M202.611,207.251H49.486V103.625
						c0-48.419,38.206-87.826,85.153-87.826c38.927,0,72.808,27.333,82.45,65.72l-62.806,42.531
						c-6.187-6.218-14.628-10.062-23.939-10.062c-8.47,0-16.25,3.214-22.257,8.47L76.579,98.429
						c-3.424-2.583-8.23-1.832-10.753,1.682c-2.523,3.544-1.802,8.5,1.622,11.113l31.418,23.939
						c-1.892,4.385-2.974,9.251-2.974,14.357c0,19.584,15.469,35.533,34.452,35.533c9.161,0,17.481-3.725,23.669-9.792
						L202.611,207.251z M73.635,192.954c0-3.815-3.004-6.908-6.698-6.908c-3.694,0-6.698,3.094-6.698,6.908
						c0,3.815,3.004,6.908,6.698,6.908C70.631,199.862,73.635,196.768,73.635,192.954z M92.558,192.954
						c0-3.815-3.004-6.908-6.698-6.908c-3.725,0-6.698,3.094-6.698,6.908c0,3.815,2.974,6.908,6.698,6.908
						C89.554,199.862,92.558,196.768,92.558,192.954z"/>
					<path style="fill:#2D213F;" d="M65.826,100.111c2.523-3.514,7.329-4.265,10.753-1.682l31.508,24.029
						c6.007-5.256,13.787-8.47,22.257-8.47c9.311,0,17.751,3.845,23.939,10.062l62.806-42.531
						c-9.642-38.386-43.523-65.72-82.45-65.72c-46.947,0-85.153,39.408-85.153,87.826V207.25h153.125l-48.599-31.989
						c-6.187,6.067-14.508,9.792-23.669,9.792c-18.983,0-34.452-15.949-34.452-35.533c0-5.106,1.081-9.972,2.974-14.357
						l-31.418-23.939C64.023,108.611,63.303,103.655,65.826,100.111z M252.831,235.125v1.502c0,15.379-12.105,27.874-27.003,27.874
						H38.703c-14.898,0-27.033-12.495-27.033-27.874v-1.502c0-13.757,9.762-25.2,22.497-27.453V103.625
						C34.167,46.496,79.252,0,134.639,0c47.938,0,89.418,35.173,98.609,83.621c0.451,2.373-0.21,4.806-1.682,6.608
						c12.165,18.863,30.577,61.424,0.661,117.863C244.031,211.065,252.831,222.029,252.831,235.125z M237.543,236.626v-1.502
						c0-6.638-5.256-12.075-11.714-12.075H38.703c-6.458,0-11.714,5.437-11.714,12.075v1.502c0,6.668,5.256,12.075,11.714,12.075
						h187.126C232.286,248.701,237.543,243.294,237.543,236.626z M219.311,199.531c25.771-49.44,9.942-85.123-0.18-100.472
						l-56.498,38.206c1.382,3.845,2.163,7.96,2.163,12.255c0,4.445-0.841,8.68-2.283,12.615L219.311,199.531z M149.477,149.521
						c0-10.873-8.59-19.734-19.133-19.734s-19.133,8.861-19.133,19.734c0,10.873,8.59,19.734,19.133,19.734
						C140.885,169.255,149.477,160.394,149.477,149.521z"/>
					<ellipse style="fill:#2D213F;" cx="66.937" cy="192.954" rx="6.698" ry="6.908"/>
				</g>
			</g>
		</g>
		<path style="fill:#C5CBCF;" d="M219.311,199.531c25.771-49.44,9.942-85.123-0.18-100.472l-19.052,12.883
			c5.686,16.769,9.699,42.225,1.652,76.016L219.311,199.531z M225.529,133.241c0.12,0.931,2.733,22.978-1.952,39.047
			c-0.751,2.553-3.034,4.205-5.497,4.205c-0.541,0-1.111-0.06-1.652-0.24c-3.034-0.931-4.776-4.235-3.845-7.389
			c3.965-13.697,1.562-33.941,1.532-34.151c-0.39-3.244,1.862-6.187,4.986-6.608C222.255,127.715,225.137,129.997,225.529,133.241z
			 M213.394,108.942c3.124-0.661,6.157,1.322,6.848,4.505l0.33,1.502c0.691,3.184-1.262,6.338-4.385,7.059
			c-0.39,0.09-0.811,0.12-1.232,0.12c-2.643,0-5.016-1.862-5.587-4.626l-0.33-1.502
			C208.348,112.817,210.299,109.663,213.394,108.942z"/>
		<path style="fill:#454D5B;" d="M134.639,15.799c-46.947,0-85.153,39.408-85.153,87.826v103.214
			c5.695-33.364,15.084-66.681,23.077-91.719l-5.115-3.899c-3.424-2.613-4.145-7.569-1.622-11.113
			c2.523-3.514,7.329-4.265,10.753-1.682l1.189,0.907c0.054-0.162,0.111-0.324,0.165-0.484
			c11.21-32.869,44.361-53.654,78.647-48.136c21.902,3.526,42.916,13.135,57.384,21.068
			C201.443,38.612,170.174,15.799,134.639,15.799z"/>
	</g>
</g>
</svg>