<?xml version="1.0" encoding="iso-8859-1"?>
<!-- Uploaded to: SVG Repo, www.svgrepo.com, Generator: SVG Repo Mixer Tools -->
<svg height="800px" width="800px" version="1.1" id="Layer_1" xmlns="http://www.w3.org/2000/svg" xmlns:xlink="http://www.w3.org/1999/xlink" 
	 viewBox="0 0 256.72 256.72" xml:space="preserve">
<g>
	<g>
		<g>
			<g id="XMLID_20_">
				<g>
					<g>
						<path style="fill:#D6AA83;" d="M128.375,15.799c62.055,0,112.546,50.491,112.546,112.576
							c0,62.055-50.491,112.546-112.546,112.546c-62.085,0-112.576-50.491-112.576-112.546
							C15.799,66.29,66.29,15.799,128.375,15.799z M213.949,142.192c0-12.345-10.032-22.377-22.377-22.377
							s-22.377,10.032-22.377,22.377s10.032,22.377,22.377,22.377S213.949,154.537,213.949,142.192z M181.029,192.203
							c0-14.147-11.504-25.651-25.681-25.651c-14.147,0-25.651,11.504-25.651,25.651c0,14.177,11.504,25.681,25.651,25.681
							C169.525,217.884,181.029,206.38,181.029,192.203z M113.988,44.003c2.313-2.313,2.283-6.097-0.06-8.44
							c-2.373-2.343-6.127-2.373-8.44-0.06c-2.313,2.283-2.283,6.067,0.06,8.44C107.891,46.286,111.675,46.316,113.988,44.003z
							 M98.069,207.551c3.995-3.995,3.935-10.513-0.12-14.568s-10.573-4.115-14.568-0.12c-3.995,3.965-3.935,10.483,0.12,14.568
							C87.556,211.486,94.074,211.516,98.069,207.551z M81.669,64.488c2.974-2.974,2.914-7.87-0.12-10.873
							c-3.034-3.034-7.9-3.094-10.873-0.12c-2.974,3.004-2.944,7.87,0.09,10.903C73.799,67.432,78.665,67.462,81.669,64.488z"/>
					</g>
					<g>
						<path style="fill:#2D213F;" d="M128.375,0C199.141,0,256.72,57.58,256.72,128.375c0,70.766-57.58,128.345-128.345,128.345
							C57.58,256.721,0,199.141,0,128.375C0,57.58,57.58,0,128.375,0z M240.922,128.375c0-62.085-50.491-112.576-112.546-112.576
							C66.291,15.799,15.8,66.29,15.8,128.375c0,62.055,50.491,112.546,112.576,112.546
							C190.43,240.922,240.922,190.43,240.922,128.375z"/>
					</g>
					<g>
						<path style="fill:#2D213F;" d="M191.572,119.815c12.345,0,22.377,10.032,22.377,22.377s-10.032,22.377-22.377,22.377
							s-22.377-10.032-22.377-22.377S179.227,119.815,191.572,119.815z M198.15,142.192c0-3.634-2.944-6.578-6.578-6.578
							s-6.578,2.944-6.578,6.578s2.944,6.578,6.578,6.578S198.15,145.826,198.15,142.192z"/>
					</g>
					<g>
						<path style="fill:#2D213F;" d="M155.348,166.552c14.177,0,25.681,11.504,25.681,25.651c0,14.177-11.504,25.681-25.681,25.681
							c-14.147,0-25.651-11.504-25.651-25.681C129.697,178.055,141.201,166.552,155.348,166.552z M165.23,192.203
							c0-5.437-4.415-9.852-9.882-9.852c-5.437,0-9.852,4.415-9.852,9.852c0,5.467,4.415,9.882,9.852,9.882
							C160.815,202.085,165.23,197.669,165.23,192.203z"/>
					</g>
					<g>
						<path style="fill:#2D213F;" d="M105.488,35.503c2.313-2.313,6.067-2.283,8.44,0.06c2.343,2.343,2.373,6.127,0.06,8.44
							s-6.097,2.283-8.44-0.06C103.205,41.57,103.175,37.786,105.488,35.503z"/>
					</g>
					<g>
						<path style="fill:#2D213F;" d="M97.949,192.984c4.055,4.055,4.115,10.573,0.12,14.568c-3.995,3.965-10.513,3.935-14.568-0.12
							c-4.055-4.085-4.115-10.603-0.12-14.568C87.376,188.869,93.894,188.929,97.949,192.984z"/>
					</g>
					<g>
						<path style="fill:#2D213F;" d="M81.549,53.615c3.034,3.004,3.094,7.9,0.12,10.873c-3.004,2.974-7.87,2.944-10.903-0.09
							c-3.034-3.034-3.064-7.9-0.09-10.903C73.649,50.521,78.515,50.581,81.549,53.615z"/>
					</g>
				</g>
			</g>
		</g>
		<path style="fill:#CC9F7E;" d="M240.922,128.375c0-62.085-50.491-112.576-112.546-112.576c-34.332,0-65.095,15.457-85.76,39.756
			l28.357,9.014c-0.066-0.063-0.144-0.105-0.207-0.171c-3.034-3.034-3.064-7.9-0.09-10.903c2.974-2.974,7.839-2.914,10.873,0.12
			c3.034,3.004,3.094,7.9,0.12,10.873c-1.213,1.201-2.736,1.889-4.313,2.109l9.654,3.067c44.712,14.21,76.662,53.693,81.236,100.384
			l0,0c7.635,4.448,12.786,12.699,12.786,22.152c0,7.674-3.388,14.547-8.732,19.253l1.925,19.662
			C213.486,213.528,240.922,174.106,240.922,128.375z M113.988,44.003c-2.313,2.313-6.097,2.283-8.44-0.06
			c-2.343-2.373-2.373-6.157-0.06-8.44c2.313-2.313,6.067-2.283,8.44,0.06C116.271,37.906,116.301,41.69,113.988,44.003z
			 M191.572,164.569c-12.345,0-22.377-10.032-22.377-22.377s10.032-22.377,22.377-22.377s22.377,10.032,22.377,22.377
			S203.917,164.569,191.572,164.569z"/>
	</g>
</g>
</svg>