<?xml version="1.0" encoding="iso-8859-1"?>
<!-- Uploaded to: SVG Repo, www.svgrepo.com, Generator: SVG Repo Mixer Tools -->
<svg height="800px" width="800px" version="1.1" id="Layer_1" xmlns="http://www.w3.org/2000/svg" xmlns:xlink="http://www.w3.org/1999/xlink" 
	 viewBox="0 0 311.182 311.182" xml:space="preserve">
<g>
	<g>
		<g>
			<g id="XMLID_5_">
				<g>
					<path style="fill:#505967;" d="M267.121,176.342c-5.557,43.282-36.734,80.978-81.459,92.542
						c-44.153,11.444-89.088-5.797-115.099-40.038c29.195-0.631,64.068-6.127,97.919-14.868
						C204.916,204.546,240.569,191.24,267.121,176.342z"/>
					<path style="fill:#2D213F;" d="M267.932,157.84c-0.3-7.569-1.412-15.258-3.394-22.888
						c-15.168-58.691-75.211-94.104-133.902-78.936c-58.661,15.169-94.044,75.272-78.875,133.963
						c2.133,8.26,5.196,16.069,8.981,23.338c26.011,0.511,61.845-3.424,103.866-14.267
						C210.232,187.245,245.525,171.837,267.932,157.84z M310.524,124.049c3.544,13.787-7.479,28.384-27.153,42.171
						c-1.622,54.276-38.717,103.355-93.864,117.622c-54.366,14.057-109.753-9.972-137.897-55.357
						c-27.483-1.772-47.037-9.251-50.942-24.299c-3.875-14.958,9.401-30.847,32.259-45.595
						c1.682-54.246,38.747-103.265,93.864-117.532c55.898-14.447,112.907,11.414,140.24,59.352
						C290.55,102.963,306.98,110.382,310.524,124.049z M282.53,147.507c9.702-7.96,14.267-14.898,13.066-19.584
						c-1.201-4.656-8.47-8.47-20.635-10.753c1.742,4.475,3.274,9.131,4.505,13.907C280.878,136.544,281.869,142.041,282.53,147.507z
						 M185.663,268.884c44.724-11.564,75.902-49.26,81.459-92.542c-26.552,14.898-62.205,28.204-98.639,37.636
						c-33.851,8.741-68.723,14.237-97.919,14.868C96.575,263.087,141.509,280.328,185.663,268.884z M43.08,212.146
						c-2.493-5.857-4.626-11.954-6.248-18.322c-1.472-5.647-2.493-11.324-3.154-17.001c-13.126,9.582-19.494,18.052-18.082,23.488
						C17.009,205.808,26.77,210.133,43.08,212.146z"/>
					<path style="fill:#505967;" d="M203.204,91.159c2.733,0,5.377-1.442,6.788-3.995c2.042-3.755,0.661-8.44-3.064-10.483
						l-7.089-3.845c-3.725-2.042-8.41-0.691-10.453,3.064c-2.042,3.755-0.661,8.44,3.064,10.483l7.089,3.845
						C200.711,90.859,201.972,91.159,203.204,91.159z M264.538,134.952c1.982,7.629,3.094,15.319,3.394,22.888
						c-22.407,13.997-57.7,29.406-103.325,41.21c-42.021,10.843-77.854,14.778-103.866,14.267
						c-3.785-7.269-6.848-15.078-8.981-23.338C36.592,131.288,71.975,71.185,130.636,56.017
						C189.327,40.848,249.37,76.261,264.538,134.952z M247.568,156.759c4.145,0,7.569-3.274,7.719-7.449
						c1.051-30.157-25.411-55.327-26.552-56.378c-3.094-2.914-7.96-2.733-10.873,0.36c-2.914,3.094-2.763,7.99,0.33,10.903
						c0.21,0.21,22.497,21.476,21.656,44.574c-0.15,4.235,3.184,7.839,7.449,7.99C247.387,156.759,247.478,156.759,247.568,156.759z
						"/>
					<path style="fill:#2D213F;" d="M255.287,149.31c-0.15,4.175-3.574,7.449-7.719,7.449c-0.09,0-0.18,0-0.27,0
						c-4.265-0.15-7.599-3.755-7.449-7.99c0.841-23.098-21.446-44.364-21.656-44.574c-3.094-2.914-3.244-7.809-0.33-10.903
						s7.779-3.274,10.873-0.36C229.876,93.983,256.338,119.153,255.287,149.31z"/>
					<path style="fill:#2D213F;" d="M206.928,76.682c3.725,2.042,5.106,6.728,3.064,10.483c-1.412,2.553-4.055,3.995-6.788,3.995
						c-1.232,0-2.493-0.3-3.664-0.931l-7.089-3.845c-3.725-2.042-5.106-6.728-3.064-10.483c2.042-3.755,6.728-5.106,10.453-3.064
						L206.928,76.682z"/>
					<path style="fill:#2D213F;" d="M37.734,23.337c11.204,0,20.245,9.071,20.245,20.244c0,11.204-9.041,20.275-20.245,20.275
						c-11.174,0-20.214-9.071-20.214-20.275C17.519,32.408,26.56,23.337,37.734,23.337z"/>
				</g>
			</g>
		</g>
		<path style="fill:#454D5B;" d="M208.217,148.198c0.568,1.135,4.845,15.072,7.224,34.806c21.605-8.197,39.3-16.922,52.492-25.164
			c-0.3-7.569-1.412-15.258-3.394-22.888c-15.168-58.691-75.211-94.104-133.902-78.936c-15.706,4.061-29.721,11.366-41.567,20.98
			C128.789,86.287,187.435,106.64,208.217,148.198z M217.862,93.292c2.914-3.094,7.779-3.274,10.873-0.36
			c1.141,1.051,27.603,26.222,26.552,56.378c-0.15,4.175-3.574,7.449-7.719,7.449c-0.09,0-0.18,0-0.27,0
			c-4.265-0.15-7.599-3.755-7.449-7.99c0.841-23.098-21.446-44.364-21.656-44.574C215.098,101.281,214.948,96.385,217.862,93.292z
			 M189.387,75.901c2.042-3.755,6.728-5.106,10.453-3.064l7.089,3.845c3.725,2.042,5.106,6.728,3.064,10.483
			c-1.412,2.553-4.055,3.995-6.788,3.995c-1.232,0-2.493-0.3-3.664-0.931l-7.089-3.845
			C188.726,84.341,187.345,79.655,189.387,75.901z"/>
		<path style="fill:#454D5B;" d="M267.121,176.342c-14.511,8.14-31.745,15.799-50.332,22.617c0.904,18.854-0.58,40.609-7.876,60.989
			C240.996,243.23,262.589,211.653,267.121,176.342z"/>
	</g>
</g>
</svg>